<?xml version="1.0" encoding="UTF-8" standalone="no" ?>
<!DOCTYPE svg PUBLIC "-//W3C//DTD SVG 1.1//EN" "http://www.w3.org/Graphics/SVG/1.1/DTD/svg11.dtd">
<svg xmlns="http://www.w3.org/2000/svg" xmlns:xlink="http://www.w3.org/1999/xlink" version="1.1" width="1200" height="628" viewBox="0 0 1200 628" xml:space="preserve">
<desc>Created with Fabric.js 5.2.4</desc>
<defs>
</defs>
<rect x="0" y="0" width="100%" height="100%" fill="transparent"></rect>
<g transform="matrix(1 0 0 1 600 314)" id="ec45e5a2-eb81-4afc-905a-c15ed14a8bb0"  >
<rect style="stroke: none; stroke-width: 1; stroke-dasharray: none; stroke-linecap: butt; stroke-dashoffset: 0; stroke-linejoin: miter; stroke-miterlimit: 4; fill: rgb(255,255,255); fill-opacity: 0; fill-rule: nonzero; opacity: 1;" vector-effect="non-scaling-stroke"  x="-600" y="-314" rx="0" ry="0" width="1200" height="628" />
</g>
<g transform="matrix(Infinity NaN NaN Infinity 0 0)" id="4ebac19e-51f2-4ccd-8e2b-96bd7e539878"  >
</g>
<g transform="matrix(12.9 0 0 12.9 600 314)" id="4ad4860c-2280-414f-b2af-b455173cdcc2"  >
<path style="stroke: rgb(255,255,255); stroke-width: 23; stroke-dasharray: none; stroke-linecap: butt; stroke-dashoffset: 0; stroke-linejoin: miter; stroke-miterlimit: 4; fill: rgb(0,0,0); fill-rule: nonzero; opacity: 1;" vector-effect="non-scaling-stroke"  transform=" translate(-16, -12)" d="M 30.722 20.579 C 30.137 21.894 28.628 23.085 27.211 23.348 C 27.066 23.375 23.603 24 16.01 24 L 15.99 24 C 8.398 24 4.932 23.375 4.788 23.349 C 3.371 23.085 1.861 21.894 1.275 20.578 C 1.223 20.461 0.001 17.647 0.001 12 C 0.001 6.353 1.223 3.538 1.275 3.421 C 1.861 2.105 3.371 0.915 4.788 0.652 C 4.932 0.625 8.398 0 15.99 0 C 23.603 0 27.066 0.625 27.21 0.651 C 28.628 0.915 30.137 2.105 30.723 3.42 C 30.775 3.538 32 6.353 32 12 C 32 17.647 30.775 20.461 30.722 20.579 Z M 28.893 4.23 C 28.581 3.529 27.603 2.759 26.845 2.618 C 26.813 2.612 23.386 2 16.01 2 C 8.615 2 5.185 2.612 5.152 2.618 C 4.394 2.759 3.417 3.529 3.104 4.234 C 3.094 4.255 2.002 6.829 2.002 12 C 2.002 17.17 3.094 19.744 3.106 19.77 C 3.417 20.471 4.394 21.241 5.153 21.382 C 5.185 21.388 8.615 22 15.99 22 L 16.01 22 C 23.386 22 26.813 21.388 26.846 21.382 C 27.604 21.241 28.581 20.471 28.894 19.766 C 28.904 19.744 29.998 17.17 29.998 12 C 29.998 6.83 28.904 4.255 28.893 4.23 Z M 13.541 17.846 C 13.379 17.949 13.193 18 13.008 18 C 12.842 18 12.676 17.959 12.525 17.875 C 12.206 17.699 12.008 17.364 12.008 17 L 12.008 7 C 12.008 6.637 12.204 6.303 12.521 6.127 C 12.838 5.95 13.227 5.958 13.534 6.149 L 21.553 11.105 C 21.846 11.286 22.026 11.606 22.027 11.951 C 22.028 12.296 21.852 12.618 21.56 12.801 L 13.541 17.846 Z M 14.009 8.794 L 14.009 15.189 L 19.137 11.963 L 14.009 8.794 Z" stroke-linecap="round" />
</g>
</svg>